<?xml version="1.0" encoding="UTF-8" standalone="no"?>
<!DOCTYPE svg PUBLIC "-//W3C//DTD SVG 1.1//EN" "http://www.w3.org/Graphics/SVG/1.1/DTD/svg11.dtd">
<svg height="100%" stroke-miterlimit="10" style="fill-rule:nonzero;clip-rule:evenodd;stroke-linecap:round;stroke-linejoin:round;" version="1.1" viewBox="0 0 18 15" width="100%" xml:space="preserve" xmlns="http://www.w3.org/2000/svg" xmlns:vectornator="http://vectornator.io" xmlns:xlink="http://www.w3.org/1999/xlink">
<defs/>
<g id="Layer-1" vectornator:layerName="Layer 1">
<g opacity="1">
<path d="M1.21704 15L10.6335 15C11.3046 15 11.8505 14.4434 11.8505 13.7592L11.8505 12.8651L11.1741 12.8645L10.7395 12.8606C10.7395 12.8606 10.7395 13.0328 10.7395 13.2754C10.7395 13.5179 10.7395 13.7592 10.7395 13.7592C10.7395 13.8189 10.6919 13.8674 10.6335 13.8674L1.21704 13.8674C1.15857 13.8674 1.11098 13.8189 1.11098 13.7592L1.11098 4.15911C1.11098 4.0995 1.15857 4.05097 1.21704 4.05097L2.30698 4.05097L2.30569 2.91827L1.21704 2.91827C0.545969 2.91827 0 3.4749 0 4.15911L0 13.7592C3.15657e-05 14.4434 0.545969 15 1.21704 15Z" fill="#037091" fill-rule="nonzero" opacity="1" stroke="none"/>
<path d="M4.36137 12.0818L13.7778 12.0818C14.4489 12.0818 14.9948 11.5251 14.9948 10.8409L14.9948 1.24082C14.9948 0.556627 14.4489 0 13.7778 0L4.36137 0C3.69025 0 3.14427 0.556627 3.14427 1.24079L3.14427 10.8409C3.14427 11.5251 3.69033 12.0818 4.36137 12.0818ZM4.36129 1.13266L13.7778 1.13266C13.8363 1.13266 13.8839 1.18118 13.8839 1.24079L13.8839 10.8409C13.8839 10.9006 13.8363 10.9491 13.7778 10.9491L4.36137 10.9491C4.30282 10.9491 4.2553 10.9006 4.2553 10.8409L4.2553 1.24079L4.25522 1.24079C4.25522 1.18118 4.30282 1.13266 4.36129 1.13266Z" fill="#037091" fill-rule="nonzero" opacity="1" stroke="none"/>
</g>
</g>
</svg>
